# xmcd
#
# Track frame offsets:
# 150
# 14962
# 30660
# 43497
# 71772
# 85347
# 101667
# 113135
# 126992
# 144987
# 164080
# 176415
# 194600
# 210485
# 230752
# 242342
# 263742
# 276272
# 292542
# 311032
# 330715
#
# Disc length: 4619 seconds
#
#
# Revision: 3
# Processed by: cddbd v1.5.1PL0 Copyright (c) Steve Scherf et al.
# Submitted via: FreeRIP 2.942 
#
DISCID=41120915
DTITLE=Sonny Terry and Brownie McGhee - Back To New Orleans
DYEAR=1900
DGENRE=Blues
TTITLE0=Let Me Be Your Big Dog
TTITLE1=Pawn Shop
TTITLE2=You Don't Know
TTITLE3=Betty and Dupree's Blues
TTITLE4=Back To New Orleans
TTITLE5=Stranger Here
TTITLE6=Fox Hunt
TTITLE7=I'm Prison Bound
TTITLE8=Louise, Louise
TTITLE9=Baby, How Long
TTITLE10=Freight Train
TTITLE11=I Got A Woman
TTITLE12=Hold Me In Your Arms
TTITLE13=The C. C. and O. Blues
TTITLE14=The Devil's Gonna Get You
TTITLE15=Don't You Lie To Me
TTITLE16=That's Why I'm Walking
TTITLE17=Wrong Track
TTITLE18=Blue Feeling
TTITLE19=House Lady
TTITLE20=I Know Better
EXTD=
EXTT0=
EXTT1=
EXTT2=
EXTT3=
EXTT4=
EXTT5=
EXTT6=
EXTT7=
EXTT8=
EXTT9=
EXTT10=
EXTT11=
EXTT12=
EXTT13=
EXTT14=
EXTT15=
EXTT16=
EXTT17=
EXTT18=
EXTT19=
EXTT20=
PLAYORDER=
